<svg xmlns="http://www.w3.org/2000/svg" xmlns:xlink="http://www.w3.org/1999/xlink" width="500" zoomAndPan="magnify" viewBox="0 0 375 374.999991" height="500" preserveAspectRatio="xMidYMid meet" version="1.0"><defs><g/><clipPath id="5740da1f82"><path d="M 192 111 L 254.53125 111 L 254.53125 219.660156 L 192 219.660156 Z M 192 111 " clip-rule="nonzero"/></clipPath><clipPath id="d4573caf3e"><path d="M 120.28125 111 L 183 111 L 183 219.660156 L 120.28125 219.660156 Z M 120.28125 111 " clip-rule="nonzero"/></clipPath><clipPath id="2891ed02f4"><path d="M 125 69.660156 L 250 69.660156 L 250 111 L 125 111 Z M 125 69.660156 " clip-rule="nonzero"/></clipPath><clipPath id="177fbb3074"><path d="M 1.5 3.394531 L 370.5 3.394531 L 370.5 372.394531 L 1.5 372.394531 Z M 1.5 3.394531 " clip-rule="nonzero"/></clipPath></defs><g fill="#ffffff" fill-opacity="1"><g transform="translate(49.087329, 255.669782)"><g><path d="M 1.671875 -6.140625 C 1.671875 -7.421875 1.585938 -8.523438 1.421875 -9.453125 C 1.253906 -10.378906 1.203125 -11.109375 1.265625 -11.640625 C 1.328125 -12.179688 1.734375 -12.453125 2.484375 -12.453125 C 2.972656 -12.453125 3.460938 -12.148438 3.953125 -11.546875 C 4.453125 -10.953125 5.019531 -10.210938 5.65625 -9.328125 C 6.300781 -8.441406 7.066406 -7.550781 7.953125 -6.65625 C 8.847656 -5.769531 9.914062 -5.023438 11.15625 -4.421875 C 12.394531 -3.828125 13.863281 -3.53125 15.5625 -3.53125 C 16.550781 -3.53125 17.363281 -3.707031 18 -4.0625 C 18.644531 -4.414062 18.96875 -5.046875 18.96875 -5.953125 C 18.96875 -6.773438 18.539062 -7.472656 17.6875 -8.046875 C 16.84375 -8.628906 15.757812 -9.195312 14.4375 -9.75 C 13.113281 -10.3125 11.707031 -10.910156 10.21875 -11.546875 C 8.738281 -12.191406 7.335938 -12.96875 6.015625 -13.875 C 4.691406 -14.789062 3.613281 -15.921875 2.78125 -17.265625 C 1.957031 -18.609375 1.546875 -20.226562 1.546875 -22.125 C 1.546875 -24.769531 2.515625 -26.96875 4.453125 -28.71875 C 6.398438 -30.476562 9.296875 -31.359375 13.140625 -31.359375 C 14.335938 -31.359375 15.316406 -31.296875 16.078125 -31.171875 C 16.847656 -31.046875 17.6875 -30.984375 18.59375 -30.984375 C 19.300781 -30.984375 19.929688 -31.046875 20.484375 -31.171875 C 21.046875 -31.296875 21.53125 -31.359375 21.9375 -31.359375 C 22.269531 -31.359375 22.550781 -31.296875 22.78125 -31.171875 C 23.007812 -31.046875 23.207031 -30.800781 23.375 -30.4375 C 24.320312 -28.363281 25.070312 -26.582031 25.625 -25.09375 C 26.1875 -23.613281 26.40625 -22.476562 26.28125 -21.6875 C 26.15625 -20.90625 25.472656 -20.515625 24.234375 -20.515625 C 23.535156 -20.515625 22.875 -20.875 22.25 -21.59375 C 21.632812 -22.320312 21.003906 -23.171875 20.359375 -24.140625 C 19.722656 -25.109375 18.96875 -25.953125 18.09375 -26.671875 C 17.226562 -27.398438 16.195312 -27.765625 15 -27.765625 C 13.84375 -27.765625 12.953125 -27.453125 12.328125 -26.828125 C 11.710938 -26.210938 11.40625 -25.390625 11.40625 -24.359375 C 11.40625 -23.410156 11.804688 -22.613281 12.609375 -21.96875 C 13.421875 -21.332031 14.445312 -20.753906 15.6875 -20.234375 C 16.925781 -19.722656 18.253906 -19.175781 19.671875 -18.59375 C 21.097656 -18.019531 22.429688 -17.316406 23.671875 -16.484375 C 24.910156 -15.660156 25.929688 -14.628906 26.734375 -13.390625 C 27.546875 -12.148438 27.953125 -10.578125 27.953125 -8.671875 C 27.953125 -6.691406 27.332031 -5.03125 26.09375 -3.6875 C 24.851562 -2.34375 23.269531 -1.328125 21.34375 -0.640625 C 19.425781 0.0351562 17.394531 0.375 15.25 0.375 C 13.675781 0.375 12.34375 0.3125 11.25 0.1875 C 10.15625 0.0625 8.820312 0 7.25 0 C 6.21875 0 5.453125 0.0625 4.953125 0.1875 C 4.460938 0.3125 3.78125 0.375 2.90625 0.375 C 2.082031 0.375 1.597656 0.078125 1.453125 -0.515625 C 1.304688 -1.117188 1.304688 -1.914062 1.453125 -2.90625 C 1.597656 -3.90625 1.671875 -4.984375 1.671875 -6.140625 Z M 1.671875 -6.140625 "/></g></g></g><g fill="#ffffff" fill-opacity="1"><g transform="translate(80.196134, 255.669782)"><g><path d="M 16.734375 0.75 C 13.835938 0.75 11.222656 0.0546875 8.890625 -1.328125 C 6.554688 -2.710938 4.695312 -4.625 3.3125 -7.0625 C 1.925781 -9.5 1.234375 -12.3125 1.234375 -15.5 C 1.234375 -18.675781 1.925781 -21.484375 3.3125 -23.921875 C 4.695312 -26.359375 6.554688 -28.269531 8.890625 -29.65625 C 11.222656 -31.039062 13.835938 -31.734375 16.734375 -31.734375 C 19.628906 -31.734375 22.242188 -31.039062 24.578125 -29.65625 C 26.910156 -28.269531 28.757812 -26.359375 30.125 -23.921875 C 31.488281 -21.484375 32.171875 -18.675781 32.171875 -15.5 C 32.171875 -12.3125 31.488281 -9.5 30.125 -7.0625 C 28.757812 -4.625 26.910156 -2.710938 24.578125 -1.328125 C 22.242188 0.0546875 19.628906 0.75 16.734375 0.75 Z M 11.78125 -15.5 C 11.78125 -12.976562 11.921875 -10.734375 12.203125 -8.765625 C 12.492188 -6.804688 13 -5.269531 13.71875 -4.15625 C 14.445312 -3.039062 15.453125 -2.484375 16.734375 -2.484375 C 18.015625 -2.484375 19.003906 -3.039062 19.703125 -4.15625 C 20.410156 -5.269531 20.898438 -6.804688 21.171875 -8.765625 C 21.441406 -10.734375 21.578125 -12.976562 21.578125 -15.5 C 21.578125 -18.019531 21.441406 -20.257812 21.171875 -22.21875 C 20.898438 -24.1875 20.410156 -25.726562 19.703125 -26.84375 C 19.003906 -27.957031 18.015625 -28.515625 16.734375 -28.515625 C 15.453125 -28.515625 14.445312 -27.957031 13.71875 -26.84375 C 13 -25.726562 12.492188 -24.1875 12.203125 -22.21875 C 11.921875 -20.257812 11.78125 -18.019531 11.78125 -15.5 Z M 11.78125 -15.5 "/></g></g></g><g fill="#ffffff" fill-opacity="1"><g transform="translate(115.518801, 255.669782)"><g><path d="M 0.5625 -29.8125 C 0.5625 -30.4375 0.796875 -30.847656 1.265625 -31.046875 C 1.742188 -31.253906 2.332031 -31.359375 3.03125 -31.359375 C 3.78125 -31.359375 4.578125 -31.296875 5.421875 -31.171875 C 6.265625 -31.046875 7 -30.984375 7.625 -30.984375 C 8.238281 -30.984375 8.96875 -31.046875 9.8125 -31.171875 C 10.664062 -31.296875 11.484375 -31.359375 12.265625 -31.359375 C 12.972656 -31.359375 13.5625 -31.253906 14.03125 -31.046875 C 14.507812 -30.847656 14.75 -30.4375 14.75 -29.8125 C 14.75 -29.351562 14.644531 -29.007812 14.4375 -28.78125 C 14.226562 -28.5625 13.976562 -28.273438 13.6875 -27.921875 C 13.40625 -27.566406 13.160156 -27.019531 12.953125 -26.28125 C 12.742188 -25.539062 12.640625 -24.445312 12.640625 -23 L 12.640625 -4.34375 C 12.640625 -3.800781 12.804688 -3.4375 13.140625 -3.25 C 13.472656 -3.0625 13.84375 -2.96875 14.25 -2.96875 C 14.664062 -2.96875 15.019531 -2.96875 15.3125 -2.96875 C 16.21875 -2.96875 17.050781 -3.296875 17.8125 -3.953125 C 18.582031 -4.617188 19.285156 -5.4375 19.921875 -6.40625 C 20.566406 -7.382812 21.164062 -8.359375 21.71875 -9.328125 C 22.28125 -10.296875 22.835938 -11.109375 23.390625 -11.765625 C 23.953125 -12.429688 24.523438 -12.765625 25.109375 -12.765625 C 26.097656 -12.765625 26.539062 -12.21875 26.4375 -11.125 C 26.332031 -10.03125 25.890625 -8.078125 25.109375 -5.265625 C 24.816406 -4.148438 24.648438 -3.164062 24.609375 -2.3125 C 24.566406 -1.46875 24.421875 -0.804688 24.171875 -0.328125 C 23.921875 0.140625 23.34375 0.375 22.4375 0.375 C 19.34375 0.375 16.582031 0.3125 14.15625 0.1875 C 11.738281 0.0625 9.539062 0 7.5625 0 C 6.570312 0 5.640625 0.0625 4.765625 0.1875 C 3.898438 0.3125 3.140625 0.375 2.484375 0.375 C 1.898438 0.375 1.429688 0.269531 1.078125 0.0625 C 0.734375 -0.144531 0.5625 -0.554688 0.5625 -1.171875 C 0.5625 -1.628906 0.660156 -1.972656 0.859375 -2.203125 C 1.066406 -2.429688 1.316406 -2.71875 1.609375 -3.0625 C 1.898438 -3.414062 2.148438 -3.960938 2.359375 -4.703125 C 2.566406 -5.453125 2.671875 -6.550781 2.671875 -8 L 2.671875 -23 C 2.671875 -24.445312 2.566406 -25.539062 2.359375 -26.28125 C 2.148438 -27.019531 1.898438 -27.566406 1.609375 -27.921875 C 1.316406 -28.273438 1.066406 -28.5625 0.859375 -28.78125 C 0.660156 -29.007812 0.5625 -29.351562 0.5625 -29.8125 Z M 0.5625 -29.8125 "/></g></g></g><g fill="#ffffff" fill-opacity="1"><g transform="translate(144.086892, 255.669782)"><g><path d="M 0.625 -29.8125 C 0.625 -30.4375 0.859375 -30.847656 1.328125 -31.046875 C 1.804688 -31.253906 2.394531 -31.359375 3.09375 -31.359375 C 3.84375 -31.359375 4.640625 -31.296875 5.484375 -31.171875 C 6.328125 -31.046875 7.0625 -30.984375 7.6875 -30.984375 C 8.300781 -30.984375 9.03125 -31.046875 9.875 -31.171875 C 10.726562 -31.296875 11.546875 -31.359375 12.328125 -31.359375 C 13.035156 -31.359375 13.625 -31.253906 14.09375 -31.046875 C 14.570312 -30.847656 14.8125 -30.4375 14.8125 -29.8125 C 14.8125 -29.351562 14.707031 -29.007812 14.5 -28.78125 C 14.289062 -28.5625 14.039062 -28.273438 13.75 -27.921875 C 13.46875 -27.566406 13.222656 -27.03125 13.015625 -26.3125 C 12.804688 -25.59375 12.703125 -24.507812 12.703125 -23.0625 L 12.703125 -10.90625 C 12.703125 -9.875 12.773438 -8.800781 12.921875 -7.6875 C 13.066406 -6.570312 13.40625 -5.617188 13.9375 -4.828125 C 14.476562 -4.046875 15.304688 -3.65625 16.421875 -3.65625 C 17.578125 -3.65625 18.414062 -4.046875 18.9375 -4.828125 C 19.457031 -5.617188 19.785156 -6.570312 19.921875 -7.6875 C 20.066406 -8.800781 20.140625 -9.875 20.140625 -10.90625 L 20.140625 -23.0625 C 20.140625 -24.507812 20.035156 -25.601562 19.828125 -26.34375 C 19.628906 -27.082031 19.382812 -27.628906 19.09375 -27.984375 C 18.800781 -28.335938 18.550781 -28.625 18.34375 -28.84375 C 18.132812 -29.070312 18.03125 -29.414062 18.03125 -29.875 C 18.03125 -30.5 18.269531 -30.910156 18.75 -31.109375 C 19.226562 -31.316406 19.816406 -31.421875 20.515625 -31.421875 C 21.253906 -31.421875 22.046875 -31.359375 22.890625 -31.234375 C 23.742188 -31.109375 24.484375 -31.046875 25.109375 -31.046875 C 25.722656 -31.046875 26.453125 -31.109375 27.296875 -31.234375 C 28.148438 -31.359375 28.96875 -31.421875 29.75 -31.421875 C 30.457031 -31.421875 31.046875 -31.316406 31.515625 -31.109375 C 31.992188 -30.910156 32.234375 -30.5 32.234375 -29.875 C 32.234375 -29.414062 32.128906 -29.070312 31.921875 -28.84375 C 31.710938 -28.625 31.460938 -28.335938 31.171875 -27.984375 C 30.890625 -27.628906 30.644531 -27.082031 30.4375 -26.34375 C 30.226562 -25.601562 30.125 -24.507812 30.125 -23.0625 L 30.125 -12.15625 C 30.125 -7.769531 28.988281 -4.582031 26.71875 -2.59375 C 24.445312 -0.613281 21.035156 0.375 16.484375 0.375 C 12.023438 0.375 8.617188 -0.601562 6.265625 -2.5625 C 3.910156 -4.53125 2.734375 -7.726562 2.734375 -12.15625 L 2.734375 -23 C 2.734375 -24.445312 2.628906 -25.539062 2.421875 -26.28125 C 2.210938 -27.019531 1.960938 -27.566406 1.671875 -27.921875 C 1.378906 -28.273438 1.128906 -28.5625 0.921875 -28.78125 C 0.722656 -29.007812 0.625 -29.351562 0.625 -29.8125 Z M 0.625 -29.8125 "/></g></g></g><g fill="#ffffff" fill-opacity="1"><g transform="translate(178.851843, 255.669782)"><g><path d="M 1.984375 -19.71875 C 1.117188 -19.71875 0.625 -20.234375 0.5 -21.265625 C 0.375 -22.296875 0.3125 -23.617188 0.3125 -25.234375 L 0.3125 -28.515625 C 0.3125 -29.253906 0.523438 -29.910156 0.953125 -30.484375 C 1.390625 -31.066406 1.984375 -31.359375 2.734375 -31.359375 C 4.378906 -31.359375 6.109375 -31.296875 7.921875 -31.171875 C 9.742188 -31.046875 12.164062 -30.984375 15.1875 -30.984375 C 18.164062 -30.984375 20.550781 -31.046875 22.34375 -31.171875 C 24.144531 -31.296875 25.867188 -31.359375 27.515625 -31.359375 C 28.265625 -31.359375 28.820312 -31.066406 29.1875 -30.484375 C 29.5625 -29.910156 29.75 -29.253906 29.75 -28.515625 L 29.75 -25.96875 C 29.75 -24.894531 29.738281 -23.882812 29.71875 -22.9375 C 29.695312 -21.988281 29.570312 -21.210938 29.34375 -20.609375 C 29.125 -20.015625 28.703125 -19.71875 28.078125 -19.71875 C 27.296875 -19.71875 26.625 -20.117188 26.0625 -20.921875 C 25.507812 -21.722656 25.003906 -22.640625 24.546875 -23.671875 C 24.085938 -24.710938 23.617188 -25.632812 23.140625 -26.4375 C 22.671875 -27.238281 22.085938 -27.640625 21.390625 -27.640625 C 20.472656 -27.640625 20.015625 -27.164062 20.015625 -26.21875 L 20.015625 -8 C 20.015625 -6.550781 20.117188 -5.453125 20.328125 -4.703125 C 20.535156 -3.960938 20.785156 -3.414062 21.078125 -3.0625 C 21.367188 -2.71875 21.613281 -2.429688 21.8125 -2.203125 C 22.019531 -1.972656 22.125 -1.628906 22.125 -1.171875 C 22.125 -0.554688 21.882812 -0.144531 21.40625 0.0625 C 20.9375 0.269531 20.351562 0.375 19.65625 0.375 C 18.863281 0.375 18.046875 0.3125 17.203125 0.1875 C 16.359375 0.0625 15.625 0 15 0 C 14.382812 0 13.648438 0.0625 12.796875 0.1875 C 11.953125 0.3125 11.15625 0.375 10.40625 0.375 C 9.707031 0.375 9.117188 0.269531 8.640625 0.0625 C 8.171875 -0.144531 7.9375 -0.554688 7.9375 -1.171875 C 7.9375 -1.628906 8.035156 -1.972656 8.234375 -2.203125 C 8.441406 -2.429688 8.691406 -2.71875 8.984375 -3.0625 C 9.273438 -3.414062 9.523438 -3.960938 9.734375 -4.703125 C 9.941406 -5.453125 10.046875 -6.550781 10.046875 -8 L 10.046875 -26.21875 C 10.046875 -27.164062 9.585938 -27.640625 8.671875 -27.640625 C 8.015625 -27.640625 7.4375 -27.238281 6.9375 -26.4375 C 6.445312 -25.632812 5.972656 -24.710938 5.515625 -23.671875 C 5.054688 -22.640625 4.546875 -21.722656 3.984375 -20.921875 C 3.429688 -20.117188 2.765625 -19.71875 1.984375 -19.71875 Z M 1.984375 -19.71875 "/></g></g></g><g fill="#ffffff" fill-opacity="1"><g transform="translate(210.828212, 255.669782)"><g><path d="M 0.625 -1.171875 C 0.625 -1.628906 0.722656 -1.972656 0.921875 -2.203125 C 1.128906 -2.429688 1.378906 -2.71875 1.671875 -3.0625 C 1.960938 -3.414062 2.210938 -3.960938 2.421875 -4.703125 C 2.628906 -5.453125 2.734375 -6.550781 2.734375 -8 L 2.734375 -23 C 2.734375 -24.445312 2.628906 -25.539062 2.421875 -26.28125 C 2.210938 -27.019531 1.960938 -27.566406 1.671875 -27.921875 C 1.378906 -28.273438 1.128906 -28.5625 0.921875 -28.78125 C 0.722656 -29.007812 0.625 -29.351562 0.625 -29.8125 C 0.625 -30.4375 0.859375 -30.847656 1.328125 -31.046875 C 1.804688 -31.253906 2.394531 -31.359375 3.09375 -31.359375 C 3.84375 -31.359375 4.640625 -31.296875 5.484375 -31.171875 C 6.328125 -31.046875 7.0625 -30.984375 7.6875 -30.984375 C 8.300781 -30.984375 9.03125 -31.046875 9.875 -31.171875 C 10.726562 -31.296875 11.523438 -31.359375 12.265625 -31.359375 C 12.972656 -31.359375 13.5625 -31.253906 14.03125 -31.046875 C 14.507812 -30.847656 14.75 -30.4375 14.75 -29.8125 C 14.75 -29.351562 14.644531 -29.007812 14.4375 -28.78125 C 14.226562 -28.5625 13.976562 -28.273438 13.6875 -27.921875 C 13.40625 -27.566406 13.160156 -27.019531 12.953125 -26.28125 C 12.742188 -25.539062 12.640625 -24.445312 12.640625 -23 L 12.640625 -8 C 12.640625 -6.550781 12.742188 -5.453125 12.953125 -4.703125 C 13.160156 -3.960938 13.40625 -3.414062 13.6875 -3.0625 C 13.976562 -2.71875 14.226562 -2.429688 14.4375 -2.203125 C 14.644531 -1.972656 14.75 -1.628906 14.75 -1.171875 C 14.75 -0.554688 14.507812 -0.144531 14.03125 0.0625 C 13.5625 0.269531 12.972656 0.375 12.265625 0.375 C 11.523438 0.375 10.726562 0.3125 9.875 0.1875 C 9.03125 0.0625 8.300781 0 7.6875 0 C 7.0625 0 6.328125 0.0625 5.484375 0.1875 C 4.640625 0.3125 3.84375 0.375 3.09375 0.375 C 2.394531 0.375 1.804688 0.269531 1.328125 0.0625 C 0.859375 -0.144531 0.625 -0.554688 0.625 -1.171875 Z M 0.625 -1.171875 "/></g></g></g><g fill="#ffffff" fill-opacity="1"><g transform="translate(228.118003, 255.669782)"><g><path d="M 16.734375 0.75 C 13.835938 0.75 11.222656 0.0546875 8.890625 -1.328125 C 6.554688 -2.710938 4.695312 -4.625 3.3125 -7.0625 C 1.925781 -9.5 1.234375 -12.3125 1.234375 -15.5 C 1.234375 -18.675781 1.925781 -21.484375 3.3125 -23.921875 C 4.695312 -26.359375 6.554688 -28.269531 8.890625 -29.65625 C 11.222656 -31.039062 13.835938 -31.734375 16.734375 -31.734375 C 19.628906 -31.734375 22.242188 -31.039062 24.578125 -29.65625 C 26.910156 -28.269531 28.757812 -26.359375 30.125 -23.921875 C 31.488281 -21.484375 32.171875 -18.675781 32.171875 -15.5 C 32.171875 -12.3125 31.488281 -9.5 30.125 -7.0625 C 28.757812 -4.625 26.910156 -2.710938 24.578125 -1.328125 C 22.242188 0.0546875 19.628906 0.75 16.734375 0.75 Z M 11.78125 -15.5 C 11.78125 -12.976562 11.921875 -10.734375 12.203125 -8.765625 C 12.492188 -6.804688 13 -5.269531 13.71875 -4.15625 C 14.445312 -3.039062 15.453125 -2.484375 16.734375 -2.484375 C 18.015625 -2.484375 19.003906 -3.039062 19.703125 -4.15625 C 20.410156 -5.269531 20.898438 -6.804688 21.171875 -8.765625 C 21.441406 -10.734375 21.578125 -12.976562 21.578125 -15.5 C 21.578125 -18.019531 21.441406 -20.257812 21.171875 -22.21875 C 20.898438 -24.1875 20.410156 -25.726562 19.703125 -26.84375 C 19.003906 -27.957031 18.015625 -28.515625 16.734375 -28.515625 C 15.453125 -28.515625 14.445312 -27.957031 13.71875 -26.84375 C 13 -25.726562 12.492188 -24.1875 12.203125 -22.21875 C 11.921875 -20.257812 11.78125 -18.019531 11.78125 -15.5 Z M 11.78125 -15.5 "/></g></g></g><g fill="#ffffff" fill-opacity="1"><g transform="translate(263.44067, 255.669782)"><g><path d="M 0.625 -0.8125 C 0.625 -1.257812 0.722656 -1.617188 0.921875 -1.890625 C 1.128906 -2.160156 1.378906 -2.488281 1.671875 -2.875 C 1.960938 -3.269531 2.210938 -3.859375 2.421875 -4.640625 C 2.628906 -5.429688 2.734375 -6.550781 2.734375 -8 L 2.734375 -23 C 2.734375 -24.40625 2.628906 -25.46875 2.421875 -26.1875 C 2.210938 -26.90625 1.960938 -27.441406 1.671875 -27.796875 C 1.378906 -28.148438 1.128906 -28.453125 0.921875 -28.703125 C 0.722656 -28.953125 0.625 -29.300781 0.625 -29.75 C 0.625 -30.414062 0.804688 -30.847656 1.171875 -31.046875 C 1.546875 -31.253906 2.003906 -31.359375 2.546875 -31.359375 C 3.117188 -31.359375 3.753906 -31.296875 4.453125 -31.171875 C 5.160156 -31.046875 5.804688 -30.984375 6.390625 -30.984375 C 7.128906 -30.984375 7.742188 -31.054688 8.234375 -31.203125 C 8.734375 -31.347656 9.191406 -31.421875 9.609375 -31.421875 C 10.066406 -31.421875 10.519531 -31.265625 10.96875 -30.953125 C 11.425781 -30.648438 11.984375 -30.023438 12.640625 -29.078125 L 23.609375 -13.703125 C 23.898438 -13.285156 24.128906 -13.117188 24.296875 -13.203125 C 24.460938 -13.285156 24.546875 -13.554688 24.546875 -14.015625 L 24.546875 -23 C 24.546875 -24.445312 24.441406 -25.5625 24.234375 -26.34375 C 24.023438 -27.125 23.773438 -27.710938 23.484375 -28.109375 C 23.203125 -28.503906 22.957031 -28.832031 22.75 -29.09375 C 22.539062 -29.363281 22.4375 -29.726562 22.4375 -30.1875 C 22.4375 -30.644531 22.5625 -30.953125 22.8125 -31.109375 C 23.0625 -31.273438 23.367188 -31.359375 23.734375 -31.359375 C 24.191406 -31.359375 24.695312 -31.296875 25.25 -31.171875 C 25.8125 -31.046875 26.300781 -30.984375 26.71875 -30.984375 C 27.125 -30.984375 27.585938 -31.046875 28.109375 -31.171875 C 28.628906 -31.296875 29.09375 -31.359375 29.5 -31.359375 C 29.832031 -31.359375 30.125 -31.273438 30.375 -31.109375 C 30.625 -30.953125 30.75 -30.644531 30.75 -30.1875 C 30.75 -29.726562 30.644531 -29.363281 30.4375 -29.09375 C 30.226562 -28.832031 29.976562 -28.503906 29.6875 -28.109375 C 29.394531 -27.710938 29.144531 -27.125 28.9375 -26.34375 C 28.738281 -25.5625 28.640625 -24.445312 28.640625 -23 L 28.640625 -8 C 28.640625 -6.59375 28.738281 -5.523438 28.9375 -4.796875 C 29.144531 -4.078125 29.394531 -3.539062 29.6875 -3.1875 C 29.976562 -2.84375 30.226562 -2.546875 30.4375 -2.296875 C 30.644531 -2.046875 30.75 -1.691406 30.75 -1.234375 C 30.75 -0.578125 30.570312 -0.144531 30.21875 0.0625 C 29.863281 0.269531 29.398438 0.375 28.828125 0.375 C 28.242188 0.375 27.597656 0.3125 26.890625 0.1875 C 26.191406 0.0625 25.554688 0 24.984375 0 C 24.234375 0 23.597656 0.0625 23.078125 0.1875 C 22.566406 0.3125 22.082031 0.375 21.625 0.375 C 21.175781 0.375 20.722656 0.21875 20.265625 -0.09375 C 19.816406 -0.40625 19.300781 -1.015625 18.71875 -1.921875 C 17.476562 -3.898438 16.1875 -5.890625 14.84375 -7.890625 C 13.5 -9.898438 12.207031 -11.78125 10.96875 -13.53125 C 9.726562 -15.289062 8.675781 -16.75 7.8125 -17.90625 C 7.519531 -18.28125 7.28125 -18.4375 7.09375 -18.375 C 6.90625 -18.3125 6.8125 -18.054688 6.8125 -17.609375 L 6.8125 -8 C 6.8125 -6.550781 6.914062 -5.429688 7.125 -4.640625 C 7.332031 -3.859375 7.582031 -3.269531 7.875 -2.875 C 8.164062 -2.488281 8.410156 -2.160156 8.609375 -1.890625 C 8.816406 -1.617188 8.921875 -1.257812 8.921875 -0.8125 C 8.921875 -0.351562 8.796875 -0.0390625 8.546875 0.125 C 8.304688 0.289062 8 0.375 7.625 0.375 C 7.164062 0.375 6.65625 0.3125 6.09375 0.1875 C 5.539062 0.0625 5.0625 0 4.65625 0 C 4.238281 0 3.78125 0.0625 3.28125 0.1875 C 2.789062 0.3125 2.316406 0.375 1.859375 0.375 C 1.523438 0.375 1.234375 0.289062 0.984375 0.125 C 0.742188 -0.0390625 0.625 -0.351562 0.625 -0.8125 Z M 0.625 -0.8125 "/></g></g></g><g fill="#ffffff" fill-opacity="1"><g transform="translate(296.71837, 255.669782)"><g><path d="M 1.671875 -6.140625 C 1.671875 -7.421875 1.585938 -8.523438 1.421875 -9.453125 C 1.253906 -10.378906 1.203125 -11.109375 1.265625 -11.640625 C 1.328125 -12.179688 1.734375 -12.453125 2.484375 -12.453125 C 2.972656 -12.453125 3.460938 -12.148438 3.953125 -11.546875 C 4.453125 -10.953125 5.019531 -10.210938 5.65625 -9.328125 C 6.300781 -8.441406 7.066406 -7.550781 7.953125 -6.65625 C 8.847656 -5.769531 9.914062 -5.023438 11.15625 -4.421875 C 12.394531 -3.828125 13.863281 -3.53125 15.5625 -3.53125 C 16.550781 -3.53125 17.363281 -3.707031 18 -4.0625 C 18.644531 -4.414062 18.96875 -5.046875 18.96875 -5.953125 C 18.96875 -6.773438 18.539062 -7.472656 17.6875 -8.046875 C 16.84375 -8.628906 15.757812 -9.195312 14.4375 -9.75 C 13.113281 -10.3125 11.707031 -10.910156 10.21875 -11.546875 C 8.738281 -12.191406 7.335938 -12.96875 6.015625 -13.875 C 4.691406 -14.789062 3.613281 -15.921875 2.78125 -17.265625 C 1.957031 -18.609375 1.546875 -20.226562 1.546875 -22.125 C 1.546875 -24.769531 2.515625 -26.96875 4.453125 -28.71875 C 6.398438 -30.476562 9.296875 -31.359375 13.140625 -31.359375 C 14.335938 -31.359375 15.316406 -31.296875 16.078125 -31.171875 C 16.847656 -31.046875 17.6875 -30.984375 18.59375 -30.984375 C 19.300781 -30.984375 19.929688 -31.046875 20.484375 -31.171875 C 21.046875 -31.296875 21.53125 -31.359375 21.9375 -31.359375 C 22.269531 -31.359375 22.550781 -31.296875 22.78125 -31.171875 C 23.007812 -31.046875 23.207031 -30.800781 23.375 -30.4375 C 24.320312 -28.363281 25.070312 -26.582031 25.625 -25.09375 C 26.1875 -23.613281 26.40625 -22.476562 26.28125 -21.6875 C 26.15625 -20.90625 25.472656 -20.515625 24.234375 -20.515625 C 23.535156 -20.515625 22.875 -20.875 22.25 -21.59375 C 21.632812 -22.320312 21.003906 -23.171875 20.359375 -24.140625 C 19.722656 -25.109375 18.96875 -25.953125 18.09375 -26.671875 C 17.226562 -27.398438 16.195312 -27.765625 15 -27.765625 C 13.84375 -27.765625 12.953125 -27.453125 12.328125 -26.828125 C 11.710938 -26.210938 11.40625 -25.390625 11.40625 -24.359375 C 11.40625 -23.410156 11.804688 -22.613281 12.609375 -21.96875 C 13.421875 -21.332031 14.445312 -20.753906 15.6875 -20.234375 C 16.925781 -19.722656 18.253906 -19.175781 19.671875 -18.59375 C 21.097656 -18.019531 22.429688 -17.316406 23.671875 -16.484375 C 24.910156 -15.660156 25.929688 -14.628906 26.734375 -13.390625 C 27.546875 -12.148438 27.953125 -10.578125 27.953125 -8.671875 C 27.953125 -6.691406 27.332031 -5.03125 26.09375 -3.6875 C 24.851562 -2.34375 23.269531 -1.328125 21.34375 -0.640625 C 19.425781 0.0351562 17.394531 0.375 15.25 0.375 C 13.675781 0.375 12.34375 0.3125 11.25 0.1875 C 10.15625 0.0625 8.820312 0 7.25 0 C 6.21875 0 5.453125 0.0625 4.953125 0.1875 C 4.460938 0.3125 3.78125 0.375 2.90625 0.375 C 2.082031 0.375 1.597656 0.078125 1.453125 -0.515625 C 1.304688 -1.117188 1.304688 -1.914062 1.453125 -2.90625 C 1.597656 -3.90625 1.671875 -4.984375 1.671875 -6.140625 Z M 1.671875 -6.140625 "/></g></g></g><g fill="#ffffff" fill-opacity="1"><g transform="translate(87.102952, 277.419781)"><g><path d="M 0.46875 -5.90625 C 0.46875 -7.039062 0.710938 -8.0625 1.203125 -8.96875 C 1.703125 -9.882812 2.394531 -10.609375 3.28125 -11.140625 C 4.175781 -11.679688 5.195312 -11.953125 6.34375 -11.953125 C 6.800781 -11.953125 7.15625 -11.925781 7.40625 -11.875 C 7.664062 -11.832031 7.96875 -11.8125 8.3125 -11.8125 C 8.582031 -11.8125 8.832031 -11.832031 9.0625 -11.875 C 9.300781 -11.925781 9.515625 -11.953125 9.703125 -11.953125 C 9.828125 -11.953125 9.9375 -11.925781 10.03125 -11.875 C 10.125 -11.832031 10.203125 -11.738281 10.265625 -11.59375 C 10.535156 -10.925781 10.769531 -10.304688 10.96875 -9.734375 C 11.175781 -9.160156 11.285156 -8.695312 11.296875 -8.34375 C 11.304688 -7.988281 11.125 -7.8125 10.75 -7.8125 C 10.394531 -7.8125 10.097656 -7.945312 9.859375 -8.21875 C 9.628906 -8.5 9.390625 -8.820312 9.140625 -9.1875 C 8.890625 -9.5625 8.585938 -9.882812 8.234375 -10.15625 C 7.878906 -10.4375 7.410156 -10.578125 6.828125 -10.578125 C 6.273438 -10.578125 5.820312 -10.351562 5.46875 -9.90625 C 5.125 -9.46875 4.875 -8.894531 4.71875 -8.1875 C 4.5625 -7.476562 4.484375 -6.71875 4.484375 -5.90625 C 4.484375 -5.082031 4.5625 -4.304688 4.71875 -3.578125 C 4.875 -2.859375 5.125 -2.269531 5.46875 -1.8125 C 5.820312 -1.363281 6.289062 -1.140625 6.875 -1.140625 C 7.394531 -1.140625 7.78125 -1.265625 8.03125 -1.515625 C 8.289062 -1.765625 8.492188 -2.070312 8.640625 -2.4375 C 8.785156 -2.8125 8.914062 -3.179688 9.03125 -3.546875 C 9.144531 -3.921875 9.3125 -4.234375 9.53125 -4.484375 C 9.757812 -4.734375 10.082031 -4.859375 10.5 -4.859375 C 10.988281 -4.859375 11.351562 -4.6875 11.59375 -4.34375 C 11.832031 -4.007812 11.914062 -3.59375 11.84375 -3.09375 C 11.78125 -2.601562 11.546875 -2.109375 11.140625 -1.609375 C 10.742188 -1.117188 10.148438 -0.703125 9.359375 -0.359375 C 8.578125 -0.0234375 7.570312 0.140625 6.34375 0.140625 C 5.15625 0.140625 4.117188 -0.125 3.234375 -0.65625 C 2.347656 -1.195312 1.664062 -1.921875 1.1875 -2.828125 C 0.707031 -3.742188 0.46875 -4.769531 0.46875 -5.90625 Z M 0.46875 -5.90625 "/></g></g></g><g fill="#ffffff" fill-opacity="1"><g transform="translate(99.942604, 277.419781)"><g><path d="M 5.59375 0.140625 C 4.019531 0.140625 2.769531 -0.285156 1.84375 -1.140625 C 0.925781 -2.003906 0.46875 -3.195312 0.46875 -4.71875 C 0.46875 -6.257812 0.925781 -7.453125 1.84375 -8.296875 C 2.769531 -9.148438 4.019531 -9.578125 5.59375 -9.578125 C 7.164062 -9.578125 8.410156 -9.148438 9.328125 -8.296875 C 10.253906 -7.453125 10.71875 -6.257812 10.71875 -4.71875 C 10.71875 -3.195312 10.253906 -2.003906 9.328125 -1.140625 C 8.410156 -0.285156 7.164062 0.140625 5.59375 0.140625 Z M 4.375 -4.71875 C 4.375 -4.070312 4.40625 -3.476562 4.46875 -2.9375 C 4.539062 -2.394531 4.664062 -1.96875 4.84375 -1.65625 C 5.03125 -1.34375 5.28125 -1.1875 5.59375 -1.1875 C 5.925781 -1.1875 6.179688 -1.34375 6.359375 -1.65625 C 6.546875 -1.96875 6.671875 -2.394531 6.734375 -2.9375 C 6.796875 -3.476562 6.828125 -4.070312 6.828125 -4.71875 C 6.828125 -5.382812 6.796875 -5.984375 6.734375 -6.515625 C 6.671875 -7.046875 6.546875 -7.46875 6.359375 -7.78125 C 6.179688 -8.101562 5.925781 -8.265625 5.59375 -8.265625 C 5.28125 -8.265625 5.03125 -8.101562 4.84375 -7.78125 C 4.664062 -7.46875 4.539062 -7.046875 4.46875 -6.515625 C 4.40625 -5.984375 4.375 -5.382812 4.375 -4.71875 Z M 4.375 -4.71875 "/></g></g></g><g fill="#ffffff" fill-opacity="1"><g transform="translate(111.861796, 277.419781)"><g><path d="M 0.234375 -0.453125 C 0.234375 -0.617188 0.269531 -0.742188 0.34375 -0.828125 C 0.425781 -0.921875 0.519531 -1.035156 0.625 -1.171875 C 0.738281 -1.304688 0.832031 -1.515625 0.90625 -1.796875 C 0.988281 -2.078125 1.03125 -2.492188 1.03125 -3.046875 C 1.03125 -3.765625 1.035156 -4.285156 1.046875 -4.609375 C 1.054688 -4.929688 1.0625 -5.164062 1.0625 -5.3125 C 1.0625 -5.46875 1.0625 -5.640625 1.0625 -5.828125 C 1.0625 -6.253906 0.992188 -6.550781 0.859375 -6.71875 C 0.722656 -6.882812 0.585938 -7.015625 0.453125 -7.109375 C 0.328125 -7.203125 0.265625 -7.351562 0.265625 -7.5625 C 0.265625 -7.789062 0.34375 -7.945312 0.5 -8.03125 C 0.65625 -8.125 0.878906 -8.203125 1.171875 -8.265625 C 1.460938 -8.328125 1.8125 -8.425781 2.21875 -8.5625 C 2.71875 -8.757812 3.0625 -8.929688 3.25 -9.078125 C 3.445312 -9.222656 3.59375 -9.34375 3.6875 -9.4375 C 3.78125 -9.53125 3.925781 -9.578125 4.125 -9.578125 C 4.414062 -9.578125 4.609375 -9.453125 4.703125 -9.203125 C 4.796875 -8.953125 4.84375 -8.65625 4.84375 -8.3125 L 4.84375 -8.125 C 4.84375 -7.90625 4.878906 -7.796875 4.953125 -7.796875 C 5.035156 -7.796875 5.160156 -7.882812 5.328125 -8.0625 C 5.503906 -8.238281 5.726562 -8.445312 6 -8.6875 C 6.28125 -8.925781 6.613281 -9.132812 7 -9.3125 C 7.382812 -9.488281 7.820312 -9.578125 8.3125 -9.578125 C 9.050781 -9.578125 9.609375 -9.421875 9.984375 -9.109375 C 10.359375 -8.796875 10.613281 -8.398438 10.75 -7.921875 C 10.882812 -7.453125 10.953125 -6.976562 10.953125 -6.5 L 10.953125 -3.046875 C 10.953125 -2.492188 10.988281 -2.078125 11.0625 -1.796875 C 11.144531 -1.515625 11.238281 -1.304688 11.34375 -1.171875 C 11.457031 -1.035156 11.550781 -0.921875 11.625 -0.828125 C 11.707031 -0.742188 11.75 -0.617188 11.75 -0.453125 C 11.75 -0.210938 11.679688 -0.0546875 11.546875 0.015625 C 11.421875 0.0976562 11.25 0.140625 11.03125 0.140625 C 10.800781 0.140625 10.539062 0.113281 10.25 0.0625 C 9.96875 0.0195312 9.691406 0 9.421875 0 C 9.171875 0 8.953125 0.0078125 8.765625 0.03125 C 8.585938 0.0625 8.394531 0.09375 8.1875 0.125 C 7.875 0.15625 7.617188 0.0820312 7.421875 -0.09375 C 7.222656 -0.269531 7.125 -0.515625 7.125 -0.828125 L 7.125 -4.703125 C 7.125 -5.453125 7.046875 -6.023438 6.890625 -6.421875 C 6.734375 -6.816406 6.453125 -7.015625 6.046875 -7.015625 C 5.679688 -7.015625 5.390625 -6.828125 5.171875 -6.453125 C 4.953125 -6.085938 4.84375 -5.328125 4.84375 -4.171875 L 4.84375 -3.046875 C 4.84375 -2.492188 4.878906 -2.078125 4.953125 -1.796875 C 5.035156 -1.515625 5.128906 -1.304688 5.234375 -1.171875 C 5.347656 -1.035156 5.441406 -0.921875 5.515625 -0.828125 C 5.597656 -0.742188 5.640625 -0.617188 5.640625 -0.453125 C 5.640625 -0.210938 5.546875 -0.0546875 5.359375 0.015625 C 5.179688 0.0976562 4.960938 0.140625 4.703125 0.140625 C 4.398438 0.140625 4.085938 0.113281 3.765625 0.0625 C 3.441406 0.0195312 3.160156 0 2.921875 0 C 2.691406 0 2.414062 0.0195312 2.09375 0.0625 C 1.769531 0.113281 1.46875 0.140625 1.1875 0.140625 C 0.914062 0.140625 0.6875 0.0976562 0.5 0.015625 C 0.320312 -0.0546875 0.234375 -0.210938 0.234375 -0.453125 Z M 0.234375 -0.453125 "/></g></g></g><g fill="#ffffff" fill-opacity="1"><g transform="translate(124.583448, 277.419781)"><g><path d="M 0.46875 -2.265625 C 0.46875 -2.578125 0.554688 -2.828125 0.734375 -3.015625 C 0.921875 -3.210938 1.1875 -3.3125 1.53125 -3.3125 C 1.832031 -3.3125 2.078125 -3.195312 2.265625 -2.96875 C 2.453125 -2.75 2.644531 -2.5 2.84375 -2.21875 C 3.050781 -1.9375 3.3125 -1.6875 3.625 -1.46875 C 3.945312 -1.25 4.375 -1.140625 4.90625 -1.140625 C 5.320312 -1.140625 5.644531 -1.179688 5.875 -1.265625 C 6.113281 -1.347656 6.234375 -1.546875 6.234375 -1.859375 C 6.234375 -2.117188 6.09375 -2.328125 5.8125 -2.484375 C 5.539062 -2.640625 5.191406 -2.78125 4.765625 -2.90625 C 4.335938 -3.039062 3.882812 -3.191406 3.40625 -3.359375 C 2.925781 -3.523438 2.472656 -3.734375 2.046875 -3.984375 C 1.628906 -4.242188 1.28125 -4.570312 1 -4.96875 C 0.726562 -5.375 0.59375 -5.882812 0.59375 -6.5 C 0.59375 -7.1875 0.75 -7.738281 1.0625 -8.15625 C 1.375 -8.570312 1.765625 -8.878906 2.234375 -9.078125 C 2.710938 -9.285156 3.179688 -9.421875 3.640625 -9.484375 C 4.109375 -9.546875 4.492188 -9.578125 4.796875 -9.578125 C 5.597656 -9.578125 6.34375 -9.484375 7.03125 -9.296875 C 7.726562 -9.109375 8.285156 -8.828125 8.703125 -8.453125 C 9.128906 -8.085938 9.34375 -7.640625 9.34375 -7.109375 C 9.34375 -6.835938 9.242188 -6.609375 9.046875 -6.421875 C 8.859375 -6.234375 8.628906 -6.140625 8.359375 -6.140625 C 7.953125 -6.140625 7.617188 -6.253906 7.359375 -6.484375 C 7.109375 -6.710938 6.878906 -6.972656 6.671875 -7.265625 C 6.472656 -7.554688 6.238281 -7.8125 5.96875 -8.03125 C 5.707031 -8.257812 5.363281 -8.375 4.9375 -8.375 C 4.507812 -8.375 4.226562 -8.273438 4.09375 -8.078125 C 3.957031 -7.890625 3.890625 -7.691406 3.890625 -7.484375 C 3.890625 -7.179688 4.023438 -6.953125 4.296875 -6.796875 C 4.566406 -6.640625 4.910156 -6.507812 5.328125 -6.40625 C 5.753906 -6.300781 6.203125 -6.1875 6.671875 -6.0625 C 7.148438 -5.9375 7.601562 -5.765625 8.03125 -5.546875 C 8.457031 -5.335938 8.800781 -5.039062 9.0625 -4.65625 C 9.332031 -4.269531 9.46875 -3.765625 9.46875 -3.140625 C 9.46875 -2.335938 9.234375 -1.695312 8.765625 -1.21875 C 8.304688 -0.738281 7.710938 -0.390625 6.984375 -0.171875 C 6.265625 0.0351562 5.503906 0.140625 4.703125 0.140625 C 4.367188 0.140625 3.960938 0.0976562 3.484375 0.015625 C 3.015625 -0.0546875 2.546875 -0.179688 2.078125 -0.359375 C 1.617188 -0.546875 1.234375 -0.789062 0.921875 -1.09375 C 0.617188 -1.40625 0.46875 -1.796875 0.46875 -2.265625 Z M 0.46875 -2.265625 "/></g></g></g><g fill="#ffffff" fill-opacity="1"><g transform="translate(135.251756, 277.419781)"><g><path d="M 0.234375 -8.875 C 0.234375 -9.113281 0.3125 -9.269531 0.46875 -9.34375 C 0.625 -9.425781 0.84375 -9.503906 1.125 -9.578125 C 1.414062 -9.660156 1.75 -9.820312 2.125 -10.0625 C 2.625 -10.375 2.984375 -10.675781 3.203125 -10.96875 C 3.429688 -11.257812 3.609375 -11.492188 3.734375 -11.671875 C 3.859375 -11.859375 4.019531 -11.953125 4.21875 -11.953125 C 4.507812 -11.953125 4.679688 -11.804688 4.734375 -11.515625 C 4.785156 -11.234375 4.8125 -10.921875 4.8125 -10.578125 L 4.8125 -9.703125 C 4.8125 -9.523438 4.898438 -9.4375 5.078125 -9.4375 L 5.453125 -9.4375 C 5.847656 -9.4375 6.046875 -9.242188 6.046875 -8.859375 C 6.046875 -8.441406 5.847656 -8.234375 5.453125 -8.234375 L 5.078125 -8.234375 C 4.898438 -8.234375 4.8125 -8.148438 4.8125 -7.984375 L 4.8125 -5.21875 C 4.8125 -4.207031 4.820312 -3.472656 4.84375 -3.015625 C 4.875 -2.566406 5 -2.226562 5.21875 -2 C 5.363281 -1.875 5.484375 -1.796875 5.578125 -1.765625 C 5.671875 -1.734375 5.738281 -1.691406 5.78125 -1.640625 C 5.832031 -1.597656 5.859375 -1.492188 5.859375 -1.328125 C 5.859375 -1.023438 5.6875 -0.703125 5.34375 -0.359375 C 5.007812 -0.0234375 4.414062 0.140625 3.5625 0.140625 C 2.570312 0.140625 1.898438 -0.210938 1.546875 -0.921875 C 1.191406 -1.640625 1.015625 -2.578125 1.015625 -3.734375 L 1.03125 -7.15625 C 1.03125 -7.582031 0.960938 -7.875 0.828125 -8.03125 C 0.703125 -8.195312 0.570312 -8.328125 0.4375 -8.421875 C 0.300781 -8.515625 0.234375 -8.664062 0.234375 -8.875 Z M 0.234375 -8.875 "/></g></g></g><g fill="#ffffff" fill-opacity="1"><g transform="translate(142.143799, 277.419781)"><g><path d="M 0.234375 -0.453125 C 0.234375 -0.617188 0.269531 -0.742188 0.34375 -0.828125 C 0.425781 -0.921875 0.519531 -1.035156 0.625 -1.171875 C 0.738281 -1.304688 0.832031 -1.515625 0.90625 -1.796875 C 0.988281 -2.078125 1.03125 -2.492188 1.03125 -3.046875 C 1.03125 -3.765625 1.035156 -4.285156 1.046875 -4.609375 C 1.054688 -4.929688 1.0625 -5.164062 1.0625 -5.3125 C 1.0625 -5.46875 1.0625 -5.640625 1.0625 -5.828125 C 1.0625 -6.253906 0.992188 -6.550781 0.859375 -6.71875 C 0.722656 -6.882812 0.585938 -7.015625 0.453125 -7.109375 C 0.328125 -7.203125 0.265625 -7.351562 0.265625 -7.5625 C 0.265625 -7.789062 0.34375 -7.945312 0.5 -8.03125 C 0.65625 -8.125 0.878906 -8.203125 1.171875 -8.265625 C 1.460938 -8.328125 1.8125 -8.425781 2.21875 -8.5625 C 2.71875 -8.757812 3.0625 -8.929688 3.25 -9.078125 C 3.445312 -9.222656 3.59375 -9.34375 3.6875 -9.4375 C 3.78125 -9.53125 3.925781 -9.578125 4.125 -9.578125 C 4.414062 -9.578125 4.609375 -9.453125 4.703125 -9.203125 C 4.796875 -8.953125 4.84375 -8.65625 4.84375 -8.3125 L 4.84375 -8.21875 C 4.84375 -7.820312 4.847656 -7.628906 4.859375 -7.640625 C 4.878906 -7.648438 4.988281 -7.828125 5.1875 -8.171875 C 5.457031 -8.628906 5.832031 -8.976562 6.3125 -9.21875 C 6.789062 -9.457031 7.253906 -9.578125 7.703125 -9.578125 C 8.566406 -9.578125 9.125 -9.390625 9.375 -9.015625 C 9.625 -8.648438 9.628906 -8.113281 9.390625 -7.40625 C 9.203125 -6.84375 9.035156 -6.453125 8.890625 -6.234375 C 8.742188 -6.023438 8.597656 -5.921875 8.453125 -5.921875 C 8.296875 -5.921875 8.125 -6.015625 7.9375 -6.203125 C 7.75 -6.398438 7.539062 -6.585938 7.3125 -6.765625 C 7.082031 -6.941406 6.800781 -7.03125 6.46875 -7.03125 C 6.28125 -7.03125 6.054688 -6.96875 5.796875 -6.84375 C 5.535156 -6.71875 5.3125 -6.488281 5.125 -6.15625 C 4.9375 -5.832031 4.84375 -5.367188 4.84375 -4.765625 L 4.84375 -3.046875 C 4.84375 -2.492188 4.878906 -2.078125 4.953125 -1.796875 C 5.035156 -1.515625 5.128906 -1.304688 5.234375 -1.171875 C 5.347656 -1.035156 5.441406 -0.921875 5.515625 -0.828125 C 5.597656 -0.742188 5.640625 -0.617188 5.640625 -0.453125 C 5.640625 -0.210938 5.546875 -0.0546875 5.359375 0.015625 C 5.179688 0.0976562 4.960938 0.140625 4.703125 0.140625 C 4.398438 0.140625 4.085938 0.113281 3.765625 0.0625 C 3.441406 0.0195312 3.160156 0 2.921875 0 C 2.691406 0 2.414062 0.0195312 2.09375 0.0625 C 1.769531 0.113281 1.46875 0.140625 1.1875 0.140625 C 0.914062 0.140625 0.6875 0.0976562 0.5 0.015625 C 0.320312 -0.0546875 0.234375 -0.210938 0.234375 -0.453125 Z M 0.234375 -0.453125 "/></g></g></g><g fill="#ffffff" fill-opacity="1"><g transform="translate(152.788498, 277.419781)"><g><path d="M 0.234375 -7.5625 C 0.234375 -7.789062 0.3125 -7.945312 0.46875 -8.03125 C 0.625 -8.125 0.847656 -8.203125 1.140625 -8.265625 C 1.429688 -8.328125 1.785156 -8.425781 2.203125 -8.5625 C 2.703125 -8.757812 3.046875 -8.929688 3.234375 -9.078125 C 3.421875 -9.222656 3.5625 -9.34375 3.65625 -9.4375 C 3.75 -9.53125 3.898438 -9.578125 4.109375 -9.578125 C 4.390625 -9.578125 4.578125 -9.453125 4.671875 -9.203125 C 4.765625 -8.953125 4.8125 -8.65625 4.8125 -8.3125 C 4.832031 -7.820312 4.84375 -7.421875 4.84375 -7.109375 C 4.851562 -6.804688 4.859375 -6.410156 4.859375 -5.921875 L 4.859375 -4.765625 C 4.859375 -3.773438 4.945312 -3.101562 5.125 -2.75 C 5.300781 -2.394531 5.566406 -2.21875 5.921875 -2.21875 C 6.285156 -2.21875 6.546875 -2.394531 6.703125 -2.75 C 6.859375 -3.101562 6.9375 -3.785156 6.9375 -4.796875 L 6.9375 -5.921875 C 6.9375 -6.316406 6.867188 -6.59375 6.734375 -6.75 C 6.609375 -6.90625 6.476562 -7.03125 6.34375 -7.125 C 6.207031 -7.21875 6.140625 -7.363281 6.140625 -7.5625 C 6.140625 -7.789062 6.21875 -7.945312 6.375 -8.03125 C 6.53125 -8.125 6.753906 -8.203125 7.046875 -8.265625 C 7.335938 -8.328125 7.6875 -8.425781 8.09375 -8.5625 C 8.601562 -8.757812 8.953125 -8.929688 9.140625 -9.078125 C 9.328125 -9.222656 9.46875 -9.34375 9.5625 -9.4375 C 9.65625 -9.53125 9.804688 -9.578125 10.015625 -9.578125 C 10.296875 -9.578125 10.484375 -9.453125 10.578125 -9.203125 C 10.671875 -8.953125 10.71875 -8.65625 10.71875 -8.3125 L 10.75 -6.390625 C 10.75 -5.679688 10.75 -5.113281 10.75 -4.6875 C 10.757812 -4.269531 10.765625 -3.9375 10.765625 -3.6875 C 10.765625 -3.4375 10.765625 -3.210938 10.765625 -3.015625 C 10.765625 -2.472656 10.800781 -2.054688 10.875 -1.765625 C 10.957031 -1.484375 11.050781 -1.273438 11.15625 -1.140625 C 11.269531 -1.003906 11.363281 -0.894531 11.4375 -0.8125 C 11.519531 -0.726562 11.5625 -0.597656 11.5625 -0.421875 C 11.5625 -0.191406 11.492188 -0.0351562 11.359375 0.046875 C 11.234375 0.128906 11.0625 0.171875 10.84375 0.171875 C 10.613281 0.171875 10.351562 0.144531 10.0625 0.09375 C 9.769531 0.0507812 9.492188 0.03125 9.234375 0.03125 C 8.984375 0.03125 8.765625 0.0390625 8.578125 0.0625 C 8.398438 0.0820312 8.207031 0.109375 8 0.140625 C 7.707031 0.171875 7.460938 0.117188 7.265625 -0.015625 C 7.078125 -0.160156 6.96875 -0.367188 6.9375 -0.640625 C 6.875 -1.109375 6.804688 -1.34375 6.734375 -1.34375 C 6.648438 -1.34375 6.453125 -1.175781 6.140625 -0.84375 C 5.890625 -0.582031 5.523438 -0.351562 5.046875 -0.15625 C 4.566406 0.0390625 4.113281 0.140625 3.6875 0.140625 C 2.957031 0.140625 2.398438 -0.015625 2.015625 -0.328125 C 1.628906 -0.640625 1.367188 -1.03125 1.234375 -1.5 C 1.097656 -1.976562 1.03125 -2.460938 1.03125 -2.953125 L 1.03125 -5.828125 C 1.03125 -6.253906 0.960938 -6.550781 0.828125 -6.71875 C 0.703125 -6.882812 0.570312 -7.015625 0.4375 -7.109375 C 0.300781 -7.203125 0.234375 -7.351562 0.234375 -7.5625 Z M 0.234375 -7.5625 "/></g></g></g><g fill="#ffffff" fill-opacity="1"><g transform="translate(165.321334, 277.419781)"><g><path d="M 0.46875 -4.703125 C 0.46875 -6.160156 0.929688 -7.335938 1.859375 -8.234375 C 2.796875 -9.128906 4.097656 -9.578125 5.765625 -9.578125 C 7.210938 -9.578125 8.304688 -9.253906 9.046875 -8.609375 C 9.796875 -7.972656 10.171875 -7.164062 10.171875 -6.1875 C 10.171875 -5.65625 9.984375 -5.175781 9.609375 -4.75 C 9.234375 -4.320312 8.710938 -4.109375 8.046875 -4.109375 C 7.515625 -4.109375 7.070312 -4.289062 6.71875 -4.65625 C 6.375 -5.03125 6.203125 -5.4375 6.203125 -5.875 C 6.203125 -6.394531 6.238281 -6.835938 6.3125 -7.203125 C 6.382812 -7.578125 6.410156 -7.863281 6.390625 -8.0625 C 6.378906 -8.269531 6.25 -8.375 6 -8.375 C 5.601562 -8.375 5.265625 -8.046875 4.984375 -7.390625 C 4.710938 -6.742188 4.585938 -5.863281 4.609375 -4.75 C 4.617188 -3.6875 4.800781 -2.835938 5.15625 -2.203125 C 5.507812 -1.566406 6.035156 -1.257812 6.734375 -1.28125 C 7.203125 -1.28125 7.550781 -1.378906 7.78125 -1.578125 C 8.019531 -1.785156 8.207031 -2.019531 8.34375 -2.28125 C 8.476562 -2.550781 8.613281 -2.789062 8.75 -3 C 8.894531 -3.207031 9.117188 -3.3125 9.421875 -3.3125 C 9.691406 -3.3125 9.890625 -3.226562 10.015625 -3.0625 C 10.148438 -2.894531 10.21875 -2.707031 10.21875 -2.5 C 10.21875 -1.96875 10.007812 -1.503906 9.59375 -1.109375 C 9.175781 -0.710938 8.617188 -0.40625 7.921875 -0.1875 C 7.234375 0.03125 6.488281 0.140625 5.6875 0.140625 C 4.851562 0.140625 4.035156 -0.0195312 3.234375 -0.34375 C 2.429688 -0.664062 1.769531 -1.179688 1.25 -1.890625 C 0.726562 -2.609375 0.46875 -3.546875 0.46875 -4.703125 Z M 0.46875 -4.703125 "/></g></g></g><g fill="#ffffff" fill-opacity="1"><g transform="translate(176.744894, 277.419781)"><g><path d="M 0.234375 -8.875 C 0.234375 -9.113281 0.3125 -9.269531 0.46875 -9.34375 C 0.625 -9.425781 0.84375 -9.503906 1.125 -9.578125 C 1.414062 -9.660156 1.75 -9.820312 2.125 -10.0625 C 2.625 -10.375 2.984375 -10.675781 3.203125 -10.96875 C 3.429688 -11.257812 3.609375 -11.492188 3.734375 -11.671875 C 3.859375 -11.859375 4.019531 -11.953125 4.21875 -11.953125 C 4.507812 -11.953125 4.679688 -11.804688 4.734375 -11.515625 C 4.785156 -11.234375 4.8125 -10.921875 4.8125 -10.578125 L 4.8125 -9.703125 C 4.8125 -9.523438 4.898438 -9.4375 5.078125 -9.4375 L 5.453125 -9.4375 C 5.847656 -9.4375 6.046875 -9.242188 6.046875 -8.859375 C 6.046875 -8.441406 5.847656 -8.234375 5.453125 -8.234375 L 5.078125 -8.234375 C 4.898438 -8.234375 4.8125 -8.148438 4.8125 -7.984375 L 4.8125 -5.21875 C 4.8125 -4.207031 4.820312 -3.472656 4.84375 -3.015625 C 4.875 -2.566406 5 -2.226562 5.21875 -2 C 5.363281 -1.875 5.484375 -1.796875 5.578125 -1.765625 C 5.671875 -1.734375 5.738281 -1.691406 5.78125 -1.640625 C 5.832031 -1.597656 5.859375 -1.492188 5.859375 -1.328125 C 5.859375 -1.023438 5.6875 -0.703125 5.34375 -0.359375 C 5.007812 -0.0234375 4.414062 0.140625 3.5625 0.140625 C 2.570312 0.140625 1.898438 -0.210938 1.546875 -0.921875 C 1.191406 -1.640625 1.015625 -2.578125 1.015625 -3.734375 L 1.03125 -7.15625 C 1.03125 -7.582031 0.960938 -7.875 0.828125 -8.03125 C 0.703125 -8.195312 0.570312 -8.328125 0.4375 -8.421875 C 0.300781 -8.515625 0.234375 -8.664062 0.234375 -8.875 Z M 0.234375 -8.875 "/></g></g></g><g fill="#ffffff" fill-opacity="1"><g transform="translate(183.636938, 277.419781)"><g><path d="M 3 0 C 2.757812 0 2.476562 0.0195312 2.15625 0.0625 C 1.832031 0.113281 1.53125 0.140625 1.25 0.140625 C 0.976562 0.140625 0.753906 0.0976562 0.578125 0.015625 C 0.398438 -0.0546875 0.3125 -0.210938 0.3125 -0.453125 C 0.3125 -0.617188 0.347656 -0.742188 0.421875 -0.828125 C 0.503906 -0.921875 0.597656 -1.035156 0.703125 -1.171875 C 0.816406 -1.304688 0.910156 -1.515625 0.984375 -1.796875 C 1.066406 -2.078125 1.109375 -2.492188 1.109375 -3.046875 C 1.109375 -3.765625 1.113281 -4.285156 1.125 -4.609375 C 1.132812 -4.929688 1.140625 -5.164062 1.140625 -5.3125 C 1.140625 -5.46875 1.140625 -5.640625 1.140625 -5.828125 C 1.140625 -6.253906 1.070312 -6.550781 0.9375 -6.71875 C 0.800781 -6.882812 0.664062 -7.015625 0.53125 -7.109375 C 0.394531 -7.203125 0.328125 -7.351562 0.328125 -7.5625 C 0.328125 -7.789062 0.40625 -7.945312 0.5625 -8.03125 C 0.71875 -8.125 0.941406 -8.203125 1.234375 -8.265625 C 1.523438 -8.328125 1.878906 -8.425781 2.296875 -8.5625 C 2.796875 -8.757812 3.140625 -8.929688 3.328125 -9.078125 C 3.515625 -9.222656 3.65625 -9.34375 3.75 -9.4375 C 3.84375 -9.53125 3.992188 -9.578125 4.203125 -9.578125 C 4.484375 -9.578125 4.671875 -9.453125 4.765625 -9.203125 C 4.859375 -8.953125 4.90625 -8.65625 4.90625 -8.3125 L 4.90625 -3.046875 C 4.90625 -2.492188 4.941406 -2.078125 5.015625 -1.796875 C 5.097656 -1.515625 5.195312 -1.304688 5.3125 -1.171875 C 5.425781 -1.035156 5.519531 -0.921875 5.59375 -0.828125 C 5.675781 -0.742188 5.71875 -0.617188 5.71875 -0.453125 C 5.71875 -0.210938 5.625 -0.0546875 5.4375 0.015625 C 5.257812 0.0976562 5.035156 0.140625 4.765625 0.140625 C 4.472656 0.140625 4.164062 0.113281 3.84375 0.0625 C 3.519531 0.0195312 3.238281 0 3 0 Z M 0.3125 -10.25 C 0.15625 -10.71875 0.234375 -11.226562 0.546875 -11.78125 C 0.867188 -12.332031 1.363281 -12.78125 2.03125 -13.125 C 2.582031 -13.40625 3.085938 -13.546875 3.546875 -13.546875 C 4.234375 -13.546875 4.679688 -13.265625 4.890625 -12.703125 C 5.054688 -12.210938 4.976562 -11.695312 4.65625 -11.15625 C 4.332031 -10.625 3.84375 -10.179688 3.1875 -9.828125 C 2.625 -9.535156 2.113281 -9.390625 1.65625 -9.390625 C 0.976562 -9.390625 0.53125 -9.675781 0.3125 -10.25 Z M 0.3125 -10.25 "/></g></g></g><g fill="#ffffff" fill-opacity="1"><g transform="translate(190.292959, 277.419781)"><g><path d="M 5.59375 0.140625 C 4.019531 0.140625 2.769531 -0.285156 1.84375 -1.140625 C 0.925781 -2.003906 0.46875 -3.195312 0.46875 -4.71875 C 0.46875 -6.257812 0.925781 -7.453125 1.84375 -8.296875 C 2.769531 -9.148438 4.019531 -9.578125 5.59375 -9.578125 C 7.164062 -9.578125 8.410156 -9.148438 9.328125 -8.296875 C 10.253906 -7.453125 10.71875 -6.257812 10.71875 -4.71875 C 10.71875 -3.195312 10.253906 -2.003906 9.328125 -1.140625 C 8.410156 -0.285156 7.164062 0.140625 5.59375 0.140625 Z M 4.375 -4.71875 C 4.375 -4.070312 4.40625 -3.476562 4.46875 -2.9375 C 4.539062 -2.394531 4.664062 -1.96875 4.84375 -1.65625 C 5.03125 -1.34375 5.28125 -1.1875 5.59375 -1.1875 C 5.925781 -1.1875 6.179688 -1.34375 6.359375 -1.65625 C 6.546875 -1.96875 6.671875 -2.394531 6.734375 -2.9375 C 6.796875 -3.476562 6.828125 -4.070312 6.828125 -4.71875 C 6.828125 -5.382812 6.796875 -5.984375 6.734375 -6.515625 C 6.671875 -7.046875 6.546875 -7.46875 6.359375 -7.78125 C 6.179688 -8.101562 5.925781 -8.265625 5.59375 -8.265625 C 5.28125 -8.265625 5.03125 -8.101562 4.84375 -7.78125 C 4.664062 -7.46875 4.539062 -7.046875 4.46875 -6.515625 C 4.40625 -5.984375 4.375 -5.382812 4.375 -4.71875 Z M 4.375 -4.71875 "/></g></g></g><g fill="#ffffff" fill-opacity="1"><g transform="translate(202.212151, 277.419781)"><g><path d="M 0.234375 -0.453125 C 0.234375 -0.617188 0.269531 -0.742188 0.34375 -0.828125 C 0.425781 -0.921875 0.519531 -1.035156 0.625 -1.171875 C 0.738281 -1.304688 0.832031 -1.515625 0.90625 -1.796875 C 0.988281 -2.078125 1.03125 -2.492188 1.03125 -3.046875 C 1.03125 -3.765625 1.035156 -4.285156 1.046875 -4.609375 C 1.054688 -4.929688 1.0625 -5.164062 1.0625 -5.3125 C 1.0625 -5.46875 1.0625 -5.640625 1.0625 -5.828125 C 1.0625 -6.253906 0.992188 -6.550781 0.859375 -6.71875 C 0.722656 -6.882812 0.585938 -7.015625 0.453125 -7.109375 C 0.328125 -7.203125 0.265625 -7.351562 0.265625 -7.5625 C 0.265625 -7.789062 0.34375 -7.945312 0.5 -8.03125 C 0.65625 -8.125 0.878906 -8.203125 1.171875 -8.265625 C 1.460938 -8.328125 1.8125 -8.425781 2.21875 -8.5625 C 2.71875 -8.757812 3.0625 -8.929688 3.25 -9.078125 C 3.445312 -9.222656 3.59375 -9.34375 3.6875 -9.4375 C 3.78125 -9.53125 3.925781 -9.578125 4.125 -9.578125 C 4.414062 -9.578125 4.609375 -9.453125 4.703125 -9.203125 C 4.796875 -8.953125 4.84375 -8.65625 4.84375 -8.3125 L 4.84375 -8.125 C 4.84375 -7.90625 4.878906 -7.796875 4.953125 -7.796875 C 5.035156 -7.796875 5.160156 -7.882812 5.328125 -8.0625 C 5.503906 -8.238281 5.726562 -8.445312 6 -8.6875 C 6.28125 -8.925781 6.613281 -9.132812 7 -9.3125 C 7.382812 -9.488281 7.820312 -9.578125 8.3125 -9.578125 C 9.050781 -9.578125 9.609375 -9.421875 9.984375 -9.109375 C 10.359375 -8.796875 10.613281 -8.398438 10.75 -7.921875 C 10.882812 -7.453125 10.953125 -6.976562 10.953125 -6.5 L 10.953125 -3.046875 C 10.953125 -2.492188 10.988281 -2.078125 11.0625 -1.796875 C 11.144531 -1.515625 11.238281 -1.304688 11.34375 -1.171875 C 11.457031 -1.035156 11.550781 -0.921875 11.625 -0.828125 C 11.707031 -0.742188 11.75 -0.617188 11.75 -0.453125 C 11.75 -0.210938 11.679688 -0.0546875 11.546875 0.015625 C 11.421875 0.0976562 11.25 0.140625 11.03125 0.140625 C 10.800781 0.140625 10.539062 0.113281 10.25 0.0625 C 9.96875 0.0195312 9.691406 0 9.421875 0 C 9.171875 0 8.953125 0.0078125 8.765625 0.03125 C 8.585938 0.0625 8.394531 0.09375 8.1875 0.125 C 7.875 0.15625 7.617188 0.0820312 7.421875 -0.09375 C 7.222656 -0.269531 7.125 -0.515625 7.125 -0.828125 L 7.125 -4.703125 C 7.125 -5.453125 7.046875 -6.023438 6.890625 -6.421875 C 6.734375 -6.816406 6.453125 -7.015625 6.046875 -7.015625 C 5.679688 -7.015625 5.390625 -6.828125 5.171875 -6.453125 C 4.953125 -6.085938 4.84375 -5.328125 4.84375 -4.171875 L 4.84375 -3.046875 C 4.84375 -2.492188 4.878906 -2.078125 4.953125 -1.796875 C 5.035156 -1.515625 5.128906 -1.304688 5.234375 -1.171875 C 5.347656 -1.035156 5.441406 -0.921875 5.515625 -0.828125 C 5.597656 -0.742188 5.640625 -0.617188 5.640625 -0.453125 C 5.640625 -0.210938 5.546875 -0.0546875 5.359375 0.015625 C 5.179688 0.0976562 4.960938 0.140625 4.703125 0.140625 C 4.398438 0.140625 4.085938 0.113281 3.765625 0.0625 C 3.441406 0.0195312 3.160156 0 2.921875 0 C 2.691406 0 2.414062 0.0195312 2.09375 0.0625 C 1.769531 0.113281 1.46875 0.140625 1.1875 0.140625 C 0.914062 0.140625 0.6875 0.0976562 0.5 0.015625 C 0.320312 -0.0546875 0.234375 -0.210938 0.234375 -0.453125 Z M 0.234375 -0.453125 "/></g></g></g><g fill="#ffffff" fill-opacity="1"><g transform="translate(214.933803, 277.419781)"><g/></g></g><g fill="#ffffff" fill-opacity="1"><g transform="translate(219.206066, 277.419781)"><g><path d="M 0.359375 -3.703125 C 0.359375 -4.335938 0.515625 -4.894531 0.828125 -5.375 C 1.140625 -5.851562 1.539062 -6.234375 2.03125 -6.515625 C 2.519531 -6.796875 3.007812 -6.9375 3.5 -6.9375 C 3.300781 -6.9375 3.066406 -7.039062 2.796875 -7.25 C 2.523438 -7.46875 2.28125 -7.753906 2.0625 -8.109375 C 1.851562 -8.460938 1.75 -8.851562 1.75 -9.28125 C 1.75 -9.96875 1.957031 -10.503906 2.375 -10.890625 C 2.789062 -11.273438 3.3125 -11.546875 3.9375 -11.703125 C 4.570312 -11.867188 5.195312 -11.953125 5.8125 -11.953125 C 6.375 -11.953125 6.929688 -11.867188 7.484375 -11.703125 C 8.046875 -11.546875 8.507812 -11.296875 8.875 -10.953125 C 9.25 -10.617188 9.4375 -10.175781 9.4375 -9.625 C 9.4375 -9.144531 9.273438 -8.710938 8.953125 -8.328125 C 8.628906 -7.953125 8.1875 -7.765625 7.625 -7.765625 C 7.28125 -7.765625 6.945312 -7.847656 6.625 -8.015625 C 6.3125 -8.179688 6.15625 -8.4375 6.15625 -8.78125 C 6.15625 -8.84375 6.195312 -8.878906 6.28125 -8.890625 C 6.375 -8.898438 6.476562 -8.957031 6.59375 -9.0625 C 6.71875 -9.175781 6.8125 -9.40625 6.875 -9.75 C 6.9375 -10.03125 6.921875 -10.289062 6.828125 -10.53125 C 6.734375 -10.769531 6.550781 -10.890625 6.28125 -10.890625 C 6.007812 -10.890625 5.789062 -10.796875 5.625 -10.609375 C 5.46875 -10.429688 5.351562 -10.210938 5.28125 -9.953125 C 5.207031 -9.691406 5.160156 -9.441406 5.140625 -9.203125 C 5.128906 -8.617188 5.191406 -8.195312 5.328125 -7.9375 C 5.460938 -7.6875 5.597656 -7.519531 5.734375 -7.4375 C 5.878906 -7.351562 5.953125 -7.289062 5.953125 -7.25 C 5.953125 -7.1875 5.875 -7.140625 5.71875 -7.109375 C 5.5625 -7.078125 5.367188 -6.976562 5.140625 -6.8125 C 4.921875 -6.644531 4.722656 -6.351562 4.546875 -5.9375 C 4.378906 -5.519531 4.28125 -4.882812 4.25 -4.03125 C 4.226562 -3.613281 4.25 -3.164062 4.3125 -2.6875 C 4.382812 -2.21875 4.53125 -1.816406 4.75 -1.484375 C 4.976562 -1.148438 5.316406 -0.984375 5.765625 -0.984375 C 6.203125 -0.984375 6.507812 -1.109375 6.6875 -1.359375 C 6.875 -1.617188 6.96875 -1.929688 6.96875 -2.296875 C 6.96875 -2.640625 6.894531 -2.921875 6.75 -3.140625 C 6.613281 -3.359375 6.457031 -3.566406 6.28125 -3.765625 C 6.101562 -3.960938 5.941406 -4.1875 5.796875 -4.4375 C 5.660156 -4.6875 5.59375 -5.019531 5.59375 -5.4375 C 5.59375 -5.851562 5.703125 -6.191406 5.921875 -6.453125 C 6.140625 -6.710938 6.40625 -6.898438 6.71875 -7.015625 C 7.039062 -7.140625 7.328125 -7.203125 7.578125 -7.203125 C 7.785156 -7.203125 8.03125 -7.191406 8.3125 -7.171875 C 8.59375 -7.160156 8.878906 -7.1875 9.171875 -7.25 C 9.472656 -7.320312 9.738281 -7.472656 9.96875 -7.703125 C 10.132812 -7.867188 10.222656 -8.019531 10.234375 -8.15625 C 10.242188 -8.300781 10.226562 -8.429688 10.1875 -8.546875 C 10.144531 -8.660156 10.128906 -8.75 10.140625 -8.8125 C 10.148438 -8.882812 10.238281 -8.929688 10.40625 -8.953125 C 10.789062 -8.984375 11.09375 -8.867188 11.3125 -8.609375 C 11.539062 -8.347656 11.65625 -8.035156 11.65625 -7.671875 C 11.65625 -7.203125 11.492188 -6.820312 11.171875 -6.53125 C 10.847656 -6.25 10.46875 -6.109375 10.03125 -6.109375 C 9.59375 -6.109375 9.207031 -6.164062 8.875 -6.28125 C 8.539062 -6.40625 8.148438 -6.46875 7.703125 -6.46875 C 7.335938 -6.46875 7.0625 -6.375 6.875 -6.1875 C 6.6875 -6 6.578125 -5.800781 6.546875 -5.59375 C 6.515625 -5.382812 6.546875 -5.242188 6.640625 -5.171875 C 6.765625 -5.085938 6.882812 -5.101562 7 -5.21875 C 7.113281 -5.34375 7.289062 -5.476562 7.53125 -5.625 C 7.769531 -5.78125 8.109375 -5.859375 8.546875 -5.859375 C 9.046875 -5.859375 9.46875 -5.722656 9.8125 -5.453125 C 10.164062 -5.179688 10.4375 -4.84375 10.625 -4.4375 C 10.8125 -4.03125 10.90625 -3.601562 10.90625 -3.15625 C 10.90625 -2.320312 10.664062 -1.664062 10.1875 -1.1875 C 9.71875 -0.707031 9.097656 -0.363281 8.328125 -0.15625 C 7.554688 0.0390625 6.707031 0.140625 5.78125 0.140625 C 4.875 0.140625 4 0 3.15625 -0.28125 C 2.320312 -0.5625 1.644531 -0.988281 1.125 -1.5625 C 0.613281 -2.144531 0.359375 -2.859375 0.359375 -3.703125 Z M 0.359375 -3.703125 "/></g></g></g><g fill="#ffffff" fill-opacity="1"><g transform="translate(231.951316, 277.419781)"><g/></g></g><g fill="#ffffff" fill-opacity="1"><g transform="translate(236.223578, 277.419781)"><g><path d="M 0.234375 -11.359375 C 0.234375 -11.585938 0.320312 -11.742188 0.5 -11.828125 C 0.6875 -11.910156 0.914062 -11.953125 1.1875 -11.953125 C 1.46875 -11.953125 1.769531 -11.925781 2.09375 -11.875 C 2.414062 -11.832031 2.691406 -11.8125 2.921875 -11.8125 C 3.160156 -11.8125 3.441406 -11.832031 3.765625 -11.875 C 4.085938 -11.925781 4.398438 -11.953125 4.703125 -11.953125 C 4.960938 -11.953125 5.179688 -11.910156 5.359375 -11.828125 C 5.546875 -11.742188 5.640625 -11.585938 5.640625 -11.359375 C 5.640625 -11.179688 5.597656 -11.050781 5.515625 -10.96875 C 5.441406 -10.882812 5.347656 -10.773438 5.234375 -10.640625 C 5.128906 -10.503906 5.035156 -10.289062 4.953125 -10 C 4.878906 -9.71875 4.84375 -9.304688 4.84375 -8.765625 L 4.84375 -7.71875 C 4.84375 -7.320312 5.039062 -7.125 5.4375 -7.125 L 7.03125 -7.125 C 7.425781 -7.125 7.625 -7.320312 7.625 -7.71875 L 7.625 -8.765625 C 7.625 -9.304688 7.582031 -9.71875 7.5 -10 C 7.425781 -10.289062 7.332031 -10.503906 7.21875 -10.640625 C 7.113281 -10.773438 7.019531 -10.882812 6.9375 -10.96875 C 6.863281 -11.050781 6.828125 -11.179688 6.828125 -11.359375 C 6.828125 -11.585938 6.914062 -11.742188 7.09375 -11.828125 C 7.269531 -11.910156 7.492188 -11.953125 7.765625 -11.953125 C 8.046875 -11.953125 8.347656 -11.925781 8.671875 -11.875 C 8.992188 -11.832031 9.273438 -11.8125 9.515625 -11.8125 C 9.753906 -11.8125 10.035156 -11.832031 10.359375 -11.875 C 10.679688 -11.925781 10.988281 -11.953125 11.28125 -11.953125 C 11.550781 -11.953125 11.773438 -11.910156 11.953125 -11.828125 C 12.140625 -11.742188 12.234375 -11.585938 12.234375 -11.359375 C 12.234375 -11.179688 12.191406 -11.050781 12.109375 -10.96875 C 12.035156 -10.882812 11.941406 -10.773438 11.828125 -10.640625 C 11.710938 -10.503906 11.613281 -10.289062 11.53125 -10 C 11.457031 -9.71875 11.421875 -9.304688 11.421875 -8.765625 L 11.421875 -3.046875 C 11.421875 -2.492188 11.457031 -2.078125 11.53125 -1.796875 C 11.613281 -1.515625 11.710938 -1.304688 11.828125 -1.171875 C 11.941406 -1.035156 12.035156 -0.921875 12.109375 -0.828125 C 12.191406 -0.742188 12.234375 -0.617188 12.234375 -0.453125 C 12.234375 -0.210938 12.140625 -0.0546875 11.953125 0.015625 C 11.773438 0.0976562 11.550781 0.140625 11.28125 0.140625 C 10.988281 0.140625 10.679688 0.113281 10.359375 0.0625 C 10.035156 0.0195312 9.753906 0 9.515625 0 C 9.273438 0 8.992188 0.0195312 8.671875 0.0625 C 8.347656 0.113281 8.046875 0.140625 7.765625 0.140625 C 7.492188 0.140625 7.269531 0.0976562 7.09375 0.015625 C 6.914062 -0.0546875 6.828125 -0.210938 6.828125 -0.453125 C 6.828125 -0.617188 6.863281 -0.742188 6.9375 -0.828125 C 7.019531 -0.921875 7.113281 -1.035156 7.21875 -1.171875 C 7.332031 -1.304688 7.425781 -1.515625 7.5 -1.796875 C 7.582031 -2.078125 7.625 -2.492188 7.625 -3.046875 L 7.625 -5.28125 C 7.625 -5.675781 7.425781 -5.875 7.03125 -5.875 L 5.4375 -5.875 C 5.039062 -5.875 4.84375 -5.675781 4.84375 -5.28125 L 4.84375 -3.046875 C 4.84375 -2.492188 4.878906 -2.078125 4.953125 -1.796875 C 5.035156 -1.515625 5.128906 -1.304688 5.234375 -1.171875 C 5.347656 -1.035156 5.441406 -0.921875 5.515625 -0.828125 C 5.597656 -0.742188 5.640625 -0.617188 5.640625 -0.453125 C 5.640625 -0.210938 5.546875 -0.0546875 5.359375 0.015625 C 5.179688 0.0976562 4.960938 0.140625 4.703125 0.140625 C 4.398438 0.140625 4.085938 0.113281 3.765625 0.0625 C 3.441406 0.0195312 3.160156 0 2.921875 0 C 2.691406 0 2.414062 0.0195312 2.09375 0.0625 C 1.769531 0.113281 1.46875 0.140625 1.1875 0.140625 C 0.914062 0.140625 0.6875 0.0976562 0.5 0.015625 C 0.320312 -0.0546875 0.234375 -0.210938 0.234375 -0.453125 C 0.234375 -0.617188 0.269531 -0.742188 0.34375 -0.828125 C 0.425781 -0.921875 0.519531 -1.035156 0.625 -1.171875 C 0.738281 -1.304688 0.832031 -1.515625 0.90625 -1.796875 C 0.988281 -2.078125 1.03125 -2.492188 1.03125 -3.046875 L 1.03125 -8.765625 C 1.03125 -9.304688 0.988281 -9.71875 0.90625 -10 C 0.832031 -10.289062 0.738281 -10.503906 0.625 -10.640625 C 0.519531 -10.773438 0.425781 -10.882812 0.34375 -10.96875 C 0.269531 -11.050781 0.234375 -11.179688 0.234375 -11.359375 Z M 0.234375 -11.359375 "/></g></g></g><g fill="#ffffff" fill-opacity="1"><g transform="translate(249.417264, 277.419781)"><g><path d="M 1.25 -10.03125 C 1.03125 -10.25 0.785156 -10.429688 0.515625 -10.578125 C 0.253906 -10.722656 0.125 -10.953125 0.125 -11.265625 C 0.125 -11.523438 0.253906 -11.703125 0.515625 -11.796875 C 0.785156 -11.898438 1.109375 -11.953125 1.484375 -11.953125 C 1.847656 -11.953125 2.210938 -11.929688 2.578125 -11.890625 C 2.953125 -11.847656 3.28125 -11.828125 3.5625 -11.828125 C 3.925781 -11.828125 4.300781 -11.847656 4.6875 -11.890625 C 5.082031 -11.941406 5.441406 -11.96875 5.765625 -11.96875 C 6.046875 -11.96875 6.28125 -11.925781 6.46875 -11.84375 C 6.65625 -11.769531 6.75 -11.625 6.75 -11.40625 C 6.75 -11.1875 6.664062 -11.003906 6.5 -10.859375 C 6.332031 -10.710938 6.175781 -10.554688 6.03125 -10.390625 C 5.894531 -10.234375 5.875 -10.003906 5.96875 -9.703125 C 6.019531 -9.546875 6.109375 -9.289062 6.234375 -8.9375 C 6.359375 -8.59375 6.5 -8.21875 6.65625 -7.8125 C 6.8125 -7.40625 6.960938 -7.007812 7.109375 -6.625 C 7.265625 -6.238281 7.394531 -5.910156 7.5 -5.640625 C 7.644531 -5.304688 7.789062 -5.304688 7.9375 -5.640625 C 8.09375 -6.015625 8.28125 -6.472656 8.5 -7.015625 C 8.71875 -7.566406 8.921875 -8.09375 9.109375 -8.59375 C 9.296875 -9.09375 9.421875 -9.457031 9.484375 -9.6875 C 9.578125 -9.976562 9.554688 -10.207031 9.421875 -10.375 C 9.296875 -10.539062 9.144531 -10.691406 8.96875 -10.828125 C 8.800781 -10.972656 8.71875 -11.15625 8.71875 -11.375 C 8.71875 -11.59375 8.773438 -11.742188 8.890625 -11.828125 C 9.003906 -11.910156 9.15625 -11.953125 9.34375 -11.953125 C 9.570312 -11.953125 9.8125 -11.925781 10.0625 -11.875 C 10.3125 -11.832031 10.5625 -11.8125 10.8125 -11.8125 C 11 -11.8125 11.210938 -11.832031 11.453125 -11.875 C 11.691406 -11.925781 11.910156 -11.953125 12.109375 -11.953125 C 12.316406 -11.953125 12.484375 -11.910156 12.609375 -11.828125 C 12.742188 -11.742188 12.8125 -11.585938 12.8125 -11.359375 C 12.8125 -11.078125 12.675781 -10.835938 12.40625 -10.640625 C 12.144531 -10.453125 11.90625 -10.25 11.6875 -10.03125 C 11.476562 -9.832031 11.257812 -9.523438 11.03125 -9.109375 C 10.800781 -8.703125 10.582031 -8.257812 10.375 -7.78125 C 10.164062 -7.3125 9.972656 -6.859375 9.796875 -6.421875 C 9.617188 -5.984375 9.476562 -5.628906 9.375 -5.359375 C 9.15625 -4.804688 8.910156 -4.226562 8.640625 -3.625 C 8.367188 -3.019531 8.109375 -2.4375 7.859375 -1.875 C 7.617188 -1.3125 7.414062 -0.828125 7.25 -0.421875 C 7.09375 -0.046875 6.832031 0.140625 6.46875 0.140625 C 6.101562 0.140625 5.84375 -0.046875 5.6875 -0.421875 C 5.53125 -0.828125 5.328125 -1.3125 5.078125 -1.875 C 4.828125 -2.4375 4.570312 -3.019531 4.3125 -3.625 C 4.050781 -4.226562 3.800781 -4.804688 3.5625 -5.359375 C 3.457031 -5.628906 3.316406 -5.984375 3.140625 -6.421875 C 2.960938 -6.859375 2.769531 -7.3125 2.5625 -7.78125 C 2.351562 -8.257812 2.132812 -8.703125 1.90625 -9.109375 C 1.6875 -9.523438 1.46875 -9.832031 1.25 -10.03125 Z M 1.25 -10.03125 "/></g></g></g><g fill="#ffffff" fill-opacity="1"><g transform="translate(263.082974, 277.419781)"><g><path d="M 0.125 -0.453125 C 0.125 -0.640625 0.179688 -0.78125 0.296875 -0.875 C 0.410156 -0.96875 0.570312 -1.09375 0.78125 -1.25 C 0.988281 -1.40625 1.21875 -1.65625 1.46875 -2 C 1.601562 -2.207031 1.773438 -2.59375 1.984375 -3.15625 C 2.203125 -3.726562 2.4375 -4.390625 2.6875 -5.140625 C 2.9375 -5.898438 3.191406 -6.679688 3.453125 -7.484375 C 3.710938 -8.285156 3.953125 -9.023438 4.171875 -9.703125 C 4.304688 -10.066406 4.351562 -10.332031 4.3125 -10.5 C 4.28125 -10.664062 4.210938 -10.789062 4.109375 -10.875 C 4.015625 -10.957031 3.921875 -11.035156 3.828125 -11.109375 C 3.742188 -11.179688 3.703125 -11.296875 3.703125 -11.453125 C 3.703125 -11.671875 3.800781 -11.804688 4 -11.859375 C 4.195312 -11.921875 4.421875 -11.953125 4.671875 -11.953125 C 4.972656 -11.953125 5.203125 -11.925781 5.359375 -11.875 C 5.515625 -11.832031 5.796875 -11.8125 6.203125 -11.8125 C 6.660156 -11.8125 7.015625 -11.832031 7.265625 -11.875 C 7.523438 -11.925781 7.769531 -11.953125 8 -11.953125 C 8.175781 -11.953125 8.320312 -11.925781 8.4375 -11.875 C 8.5625 -11.832031 8.675781 -11.675781 8.78125 -11.40625 C 8.925781 -11.070312 9.109375 -10.554688 9.328125 -9.859375 C 9.546875 -9.160156 9.785156 -8.382812 10.046875 -7.53125 C 10.304688 -6.675781 10.566406 -5.835938 10.828125 -5.015625 C 11.097656 -4.191406 11.351562 -3.472656 11.59375 -2.859375 C 11.832031 -2.242188 12.03125 -1.832031 12.1875 -1.625 C 12.445312 -1.300781 12.65625 -1.082031 12.8125 -0.96875 C 12.976562 -0.851562 13.0625 -0.679688 13.0625 -0.453125 C 13.0625 -0.210938 12.976562 -0.0546875 12.8125 0.015625 C 12.65625 0.0976562 12.445312 0.140625 12.1875 0.140625 C 11.882812 0.140625 11.523438 0.113281 11.109375 0.0625 C 10.691406 0.0195312 10.238281 0 9.75 0 C 9.507812 0 9.21875 0.0195312 8.875 0.0625 C 8.539062 0.113281 8.21875 0.140625 7.90625 0.140625 C 7.625 0.140625 7.382812 0.0976562 7.1875 0.015625 C 6.988281 -0.0546875 6.890625 -0.210938 6.890625 -0.453125 C 6.890625 -0.679688 6.941406 -0.847656 7.046875 -0.953125 C 7.148438 -1.054688 7.25 -1.203125 7.34375 -1.390625 C 7.4375 -1.578125 7.484375 -1.898438 7.484375 -2.359375 C 7.484375 -2.722656 7.394531 -3.003906 7.21875 -3.203125 C 7.050781 -3.410156 6.832031 -3.515625 6.5625 -3.515625 L 4.390625 -3.515625 C 4.117188 -3.515625 3.894531 -3.410156 3.71875 -3.203125 C 3.550781 -3.003906 3.46875 -2.722656 3.46875 -2.359375 C 3.46875 -1.898438 3.53125 -1.566406 3.65625 -1.359375 C 3.78125 -1.160156 3.90625 -1.003906 4.03125 -0.890625 C 4.15625 -0.785156 4.21875 -0.640625 4.21875 -0.453125 C 4.21875 -0.234375 4.128906 -0.0820312 3.953125 0 C 3.785156 0.09375 3.59375 0.140625 3.375 0.140625 C 3.101562 0.140625 2.894531 0.113281 2.75 0.0625 C 2.601562 0.0195312 2.410156 0 2.171875 0 C 1.929688 0 1.738281 0.0195312 1.59375 0.0625 C 1.445312 0.113281 1.238281 0.140625 0.96875 0.140625 C 0.75 0.140625 0.550781 0.09375 0.375 0 C 0.207031 -0.0820312 0.125 -0.234375 0.125 -0.453125 Z M 4.125 -5.21875 C 4 -4.851562 4.117188 -4.671875 4.484375 -4.671875 L 6.390625 -4.671875 C 6.753906 -4.671875 6.875 -4.851562 6.75 -5.21875 C 6.550781 -5.8125 6.351562 -6.4375 6.15625 -7.09375 C 5.96875 -7.75 5.8125 -8.296875 5.6875 -8.734375 C 5.625 -8.941406 5.554688 -9.046875 5.484375 -9.046875 C 5.421875 -9.046875 5.347656 -8.953125 5.265625 -8.765625 C 5.109375 -8.316406 4.9375 -7.757812 4.75 -7.09375 C 4.5625 -6.4375 4.351562 -5.8125 4.125 -5.21875 Z M 4.125 -5.21875 "/></g></g></g><g fill="#ffffff" fill-opacity="1"><g transform="translate(276.984707, 277.419781)"><g><path d="M 0.46875 -5.90625 C 0.46875 -7.039062 0.710938 -8.0625 1.203125 -8.96875 C 1.703125 -9.882812 2.394531 -10.609375 3.28125 -11.140625 C 4.175781 -11.679688 5.195312 -11.953125 6.34375 -11.953125 C 6.800781 -11.953125 7.15625 -11.925781 7.40625 -11.875 C 7.664062 -11.832031 7.96875 -11.8125 8.3125 -11.8125 C 8.582031 -11.8125 8.832031 -11.832031 9.0625 -11.875 C 9.300781 -11.925781 9.515625 -11.953125 9.703125 -11.953125 C 9.828125 -11.953125 9.9375 -11.925781 10.03125 -11.875 C 10.125 -11.832031 10.203125 -11.738281 10.265625 -11.59375 C 10.535156 -10.925781 10.769531 -10.304688 10.96875 -9.734375 C 11.175781 -9.160156 11.285156 -8.695312 11.296875 -8.34375 C 11.304688 -7.988281 11.125 -7.8125 10.75 -7.8125 C 10.394531 -7.8125 10.097656 -7.945312 9.859375 -8.21875 C 9.628906 -8.5 9.390625 -8.820312 9.140625 -9.1875 C 8.890625 -9.5625 8.585938 -9.882812 8.234375 -10.15625 C 7.878906 -10.4375 7.410156 -10.578125 6.828125 -10.578125 C 6.273438 -10.578125 5.820312 -10.351562 5.46875 -9.90625 C 5.125 -9.46875 4.875 -8.894531 4.71875 -8.1875 C 4.5625 -7.476562 4.484375 -6.71875 4.484375 -5.90625 C 4.484375 -5.082031 4.5625 -4.304688 4.71875 -3.578125 C 4.875 -2.859375 5.125 -2.269531 5.46875 -1.8125 C 5.820312 -1.363281 6.289062 -1.140625 6.875 -1.140625 C 7.394531 -1.140625 7.78125 -1.265625 8.03125 -1.515625 C 8.289062 -1.765625 8.492188 -2.070312 8.640625 -2.4375 C 8.785156 -2.8125 8.914062 -3.179688 9.03125 -3.546875 C 9.144531 -3.921875 9.3125 -4.234375 9.53125 -4.484375 C 9.757812 -4.734375 10.082031 -4.859375 10.5 -4.859375 C 10.988281 -4.859375 11.351562 -4.6875 11.59375 -4.34375 C 11.832031 -4.007812 11.914062 -3.59375 11.84375 -3.09375 C 11.78125 -2.601562 11.546875 -2.109375 11.140625 -1.609375 C 10.742188 -1.117188 10.148438 -0.703125 9.359375 -0.359375 C 8.578125 -0.0234375 7.570312 0.140625 6.34375 0.140625 C 5.15625 0.140625 4.117188 -0.125 3.234375 -0.65625 C 2.347656 -1.195312 1.664062 -1.921875 1.1875 -2.828125 C 0.707031 -3.742188 0.46875 -4.769531 0.46875 -5.90625 Z M 0.46875 -5.90625 "/></g></g></g><path stroke-linecap="butt" transform="matrix(0.75, 0, 0, 0.75, 294.097339, 271.110628)" fill="none" stroke-linejoin="miter" d="M 0.000423283 1.99833 L 47.05251 1.99833 " stroke="#ffffff" stroke-width="4" stroke-opacity="1" stroke-miterlimit="4"/><path stroke-linecap="butt" transform="matrix(0.75, 0, 0, 0.75, 50.273713, 271.110628)" fill="none" stroke-linejoin="miter" d="M -0.000367598 1.99833 L 47.056927 1.99833 " stroke="#ffffff" stroke-width="4" stroke-opacity="1" stroke-miterlimit="4"/><g clip-path="url(#5740da1f82)"><path fill="#ffffff" d="M 192.214844 147.5625 L 254.644531 111.535156 L 254.652344 138.972656 L 242.707031 145.824219 L 242.707031 132.230469 L 204.191406 154.46875 L 204.191406 198.976562 L 242.707031 176.714844 L 242.707031 163.304688 L 254.664062 156.453125 L 254.675781 183.609375 L 192.246094 219.660156 Z M 192.214844 147.5625 " fill-opacity="1" fill-rule="nonzero"/></g><path fill="#ffffff" d="M 231.003906 169.945312 L 215.933594 178.644531 L 215.886719 161.21875 L 231.003906 152.546875 Z M 231.003906 169.945312 " fill-opacity="1" fill-rule="nonzero"/><g clip-path="url(#d4573caf3e)"><path fill="#ffffff" d="M 120.34375 162.6875 L 132.265625 169.578125 L 132.265625 176.824219 L 170.695312 199.023438 L 170.695312 183.1875 L 120.34375 154.152344 L 120.355469 111.789062 L 182.636719 147.730469 L 182.625 169.5 L 170.695312 162.660156 L 170.695312 154.621094 L 132.265625 132.441406 L 132.230469 147.238281 L 182.617188 176.300781 L 182.609375 219.660156 L 120.324219 183.699219 Z M 120.34375 162.6875 " fill-opacity="1" fill-rule="nonzero"/></g><path fill="#ffffff" d="M 177.707031 105.230469 L 185.84375 105.230469 L 185.84375 113.371094 L 177.707031 113.371094 Z M 177.707031 105.230469 " fill-opacity="1" fill-rule="nonzero"/><path fill="#ffffff" d="M 189.160156 105.230469 L 197.296875 105.230469 L 197.296875 113.371094 L 189.160156 113.371094 Z M 189.160156 105.230469 " fill-opacity="1" fill-rule="nonzero"/><path fill="#ffffff" d="M 177.707031 93.773438 L 185.84375 93.773438 L 185.84375 101.914062 L 177.707031 101.914062 Z M 177.707031 93.773438 " fill-opacity="1" fill-rule="nonzero"/><path fill="#ffffff" d="M 189.160156 93.773438 L 197.296875 93.773438 L 197.296875 101.914062 L 189.160156 101.914062 Z M 189.160156 93.773438 " fill-opacity="1" fill-rule="nonzero"/><g clip-path="url(#2891ed02f4)"><path fill="#ffffff" d="M 187.5 80.136719 L 240.554688 110.78125 L 249.628906 105.539062 L 187.511719 69.660156 L 187.5 69.667969 L 187.484375 69.660156 L 125.171875 105.679688 L 134.25 110.917969 Z M 187.5 80.136719 " fill-opacity="1" fill-rule="nonzero"/></g><g clip-path="url(#177fbb3074)"><path fill="#ffffff" d="M 370.863281 188.074219 C 370.863281 290.070312 288.179688 372.757812 186.183594 372.757812 C 84.1875 372.757812 1.5 290.070312 1.5 188.074219 C 1.5 86.078125 84.1875 3.394531 186.183594 3.394531 C 288.179688 3.394531 370.863281 86.078125 370.863281 188.074219 M 365.5625 188.074219 C 365.5625 89.003906 285.253906 8.695312 186.183594 8.695312 C 87.113281 8.695312 6.800781 89.003906 6.800781 188.074219 C 6.800781 287.144531 87.113281 367.457031 186.183594 367.457031 C 285.253906 367.457031 365.5625 287.144531 365.5625 188.074219 Z M 365.5625 188.074219 " fill-opacity="1" fill-rule="nonzero"/></g></svg>